<svg
  width="110"
  height="110"
  viewBox="0 0 110 110"
  fill="none"
  xmlns="http://www.w3.org/2000/svg"
>
  <path
    opacity="0.4"
    d="M45.7868 82.4084C66.012 82.4084 82.4077 66.0126 82.4077 45.7875C82.4077 25.5624 66.012 9.16669 45.7868 9.16669C25.5617 9.16669 9.16602 25.5624 9.16602 45.7875C9.16602 66.0126 25.5617 82.4084 45.7868 82.4084Z"
    fill="#A6B7D4"
  />
  <path
    d="M100.696 73.2875C100.696 88.4125 88.4124 100.696 73.2874 100.696C63.9374 100.696 55.7332 96.0208 50.7832 88.9167C70.7665 86.6708 86.6707 70.7667 88.9165 50.7833C96.0207 55.7333 100.696 63.9375 100.696 73.2875Z"
    fill="#A6B7D4"
  />
  <path
    d="M52.4785 44.5042L41.4785 40.6542C40.3785 40.2875 40.1493 40.1958 40.1493 38.5917C40.1493 37.4 40.9743 36.4375 42.0285 36.4375H48.9035C50.3702 36.4375 51.5618 37.7667 51.5618 39.4167C51.5618 41.2958 53.1202 42.8542 54.9993 42.8542C56.8785 42.8542 58.4368 41.2958 58.4368 39.4167C58.4368 34.1458 54.3577 29.8375 49.2702 29.6083V29.3792C49.2702 27.5 47.7118 25.9417 45.8327 25.9417C43.9535 25.9417 42.3952 27.4542 42.3952 29.3792V29.6083H41.9827C37.1702 29.6083 33.2285 33.6417 33.2285 38.6375C33.2285 42.9917 35.1535 45.7875 39.141 47.1625L50.1868 51.0125C51.2868 51.3792 51.516 51.4708 51.516 53.075C51.516 54.2667 50.691 55.2292 49.6368 55.2292H42.7618C41.2952 55.2292 40.1035 53.9 40.1035 52.25C40.1035 50.3708 38.5452 48.8125 36.666 48.8125C34.7868 48.8125 33.2285 50.3708 33.2285 52.25C33.2285 57.5208 37.3077 61.8292 42.3952 62.0583V62.3333C42.3952 64.2125 43.9535 65.7708 45.8327 65.7708C47.7118 65.7708 49.2702 64.2125 49.2702 62.3333V62.1042H49.6827C54.4952 62.1042 58.4368 58.0708 58.4368 53.075C58.4368 48.7208 56.466 45.925 52.4785 44.5042Z"
    fill="#A6B7D4"
  />
</svg>
