<svg
  width="28"
  height="29"
  viewBox="0 0 28 29"
  fill="none"
  xmlns="http://www.w3.org/2000/svg"
>
  <path d="M28 0.5H0V28.5H28V0.5Z" fill="white" />
  <path
    opacity="0.4"
    d="M14.0007 26.1663C20.444 26.1663 25.6673 20.943 25.6673 14.4997C25.6673 8.05635 20.444 2.83301 14.0007 2.83301C7.55733 2.83301 2.33398 8.05635 2.33398 14.4997C2.33398 20.943 7.55733 26.1663 14.0007 26.1663Z"
    fill="url(#paint0_linear_5279_14749)"
  />
  <path
    d="M19.7744 21.1496C19.5528 21.1496 19.3311 21.068 19.1561 20.893C18.8178 20.5546 18.8178 19.9946 19.1561 19.6563C20.5328 18.2796 21.2911 16.448 21.2911 14.4996C21.2911 12.5513 20.5328 10.7196 19.1561 9.34296C18.8178 9.00462 18.8178 8.44462 19.1561 8.10629C19.4944 7.76796 20.0544 7.76796 20.3928 8.10629C22.0961 9.80962 23.0411 12.0846 23.0411 14.4996C23.0411 16.9146 22.0961 19.1896 20.3928 20.893C20.2178 21.068 19.9961 21.1496 19.7744 21.1496Z"
    fill="url(#paint1_linear_5279_14749)"
  />
  <path
    d="M8.22564 21.1496C8.00397 21.1496 7.7823 21.068 7.6073 20.893C5.90397 19.1896 4.95898 16.9146 4.95898 14.4996C4.95898 12.0846 5.90397 9.80962 7.6073 8.10629C7.94564 7.76796 8.50563 7.76796 8.84397 8.10629C9.1823 8.44462 9.1823 9.00462 8.84397 9.34296C7.4673 10.7196 6.70898 12.5513 6.70898 14.4996C6.70898 16.448 7.4673 18.2796 8.84397 19.6563C9.1823 19.9946 9.1823 20.5546 8.84397 20.893C8.66897 21.068 8.4473 21.1496 8.22564 21.1496Z"
    fill="url(#paint2_linear_5279_14749)"
  />
  <path
    d="M15.9245 14.2429L14.8745 13.8696V11.5596H14.9095C15.4228 11.5596 15.8545 12.0263 15.8545 12.5863C15.8545 13.0646 16.2511 13.4613 16.7295 13.4613C17.2078 13.4613 17.6045 13.0646 17.6045 12.5863C17.6045 11.0579 16.4028 9.80961 14.9095 9.80961H14.8745V9.59961C14.8745 9.12128 14.4778 8.72461 13.9995 8.72461C13.5212 8.72461 13.1245 9.12128 13.1245 9.59961V9.80961H12.8561C11.5028 9.80961 10.3945 10.9529 10.3945 12.3413C10.3945 13.5663 10.9428 14.3479 12.0628 14.7446L13.1128 15.1179V17.4279H13.0778C12.5645 17.4279 12.1328 16.9613 12.1328 16.4013C12.1328 15.9229 11.7361 15.5263 11.2578 15.5263C10.7795 15.5263 10.3828 15.9229 10.3828 16.4013C10.3828 17.9296 11.5845 19.1779 13.0778 19.1779H13.1128V19.3879C13.1128 19.8663 13.5095 20.2629 13.9878 20.2629C14.4661 20.2629 14.8628 19.8663 14.8628 19.3879V19.1779H15.1312C16.4845 19.1779 17.5928 18.0346 17.5928 16.6463C17.5928 15.4213 17.0561 14.6396 15.9245 14.2429ZM12.6461 13.0996C12.2728 12.9713 12.1445 12.9013 12.1445 12.3529C12.1445 11.9213 12.4595 11.5713 12.8561 11.5713H13.1245V13.2746L12.6461 13.0996ZM15.1428 17.4396H14.8745V15.7363L15.3528 15.8996C15.7262 16.0279 15.8545 16.0979 15.8545 16.6463C15.8428 17.0779 15.5278 17.4396 15.1428 17.4396Z"
    fill="url(#paint3_linear_5279_14749)"
  />
  <defs>
    <linearGradient
      id="paint0_linear_5279_14749"
      x1="25.6673"
      y1="2.83301"
      x2="2.33398"
      y2="26.1663"
      gradientUnits="userSpaceOnUse"
    >
      <stop stop-color="#D665FF" />
      <stop offset="1" stop-color="#4C6FFF" />
    </linearGradient>
    <linearGradient
      id="paint1_linear_5279_14749"
      x1="23.0411"
      y1="7.85254"
      x2="15.4947"
      y2="10.2014"
      gradientUnits="userSpaceOnUse"
    >
      <stop stop-color="#D665FF" />
      <stop offset="1" stop-color="#4C6FFF" />
    </linearGradient>
    <linearGradient
      id="paint2_linear_5279_14749"
      x1="9.09772"
      y1="7.85254"
      x2="1.55132"
      y2="10.2014"
      gradientUnits="userSpaceOnUse"
    >
      <stop stop-color="#D665FF" />
      <stop offset="1" stop-color="#4C6FFF" />
    </linearGradient>
    <linearGradient
      id="paint3_linear_5279_14749"
      x1="17.6045"
      y1="8.72461"
      x2="7.22652"
      y2="15.22"
      gradientUnits="userSpaceOnUse"
    >
      <stop stop-color="#D665FF" />
      <stop offset="1" stop-color="#4C6FFF" />
    </linearGradient>
  </defs>
</svg>
