<svg
  width="16"
  height="17"
  viewBox="0 0 16 17"
  fill="none"
  xmlns="http://www.w3.org/2000/svg"
>
  <path
    fill-rule="evenodd"
    clip-rule="evenodd"
    d="M8 3.24805L7.28325 2.51133C5.5989 0.780067 2.51415 1.37769 1.40036 3.55284C0.876534 4.57583 0.75875 6.05246 1.71429 7.93758C2.63457 9.75313 4.54767 11.9265 8 14.2946C11.4523 11.9265 13.3654 9.75313 14.2857 7.93758C15.2413 6.05246 15.1235 4.57583 14.5996 3.55284C13.4859 1.37769 10.4011 0.780067 8.71675 2.51133L8 3.24805ZM8 15.5C-7.33313 5.36841 3.27876 -2.54087 7.82432 1.64308C7.88395 1.69797 7.94253 1.75493 8 1.814C8.05747 1.75494 8.11605 1.69797 8.17567 1.64309C12.7212 -2.54088 23.3331 5.3684 8 15.5Z"
    fill="black"
  />
</svg>
