<svg
  width="24"
  height="24"
  viewBox="0 0 24 24"
  fill="none"
  xmlns="http://www.w3.org/2000/svg"
>
  <path
    d="M12 22.75C11.59 22.75 11.25 22.41 11.25 22V20C11.25 19.59 11.59 19.25 12 19.25C12.41 19.25 12.75 19.59 12.75 20V22C12.75 22.41 12.41 22.75 12 22.75Z"
    fill="#292D32"
  />
  <path
    d="M12 18.75C11.59 18.75 11.25 18.41 11.25 18V16C11.25 15.59 11.59 15.25 12 15.25C12.41 15.25 12.75 15.59 12.75 16V18C12.75 18.41 12.41 18.75 12 18.75Z"
    fill="#292D32"
  />
  <path
    d="M12 14.75C11.59 14.75 11.25 14.41 11.25 14V11C11.25 6.73 14.73 3.25 19 3.25H22C22.41 3.25 22.75 3.59 22.75 4C22.75 4.41 22.41 4.75 22 4.75H19C15.55 4.75 12.75 7.55 12.75 11V14C12.75 14.41 12.41 14.75 12 14.75Z"
    fill="#292D32"
  />
  <path
    d="M12 14.75C11.59 14.75 11.25 14.41 11.25 14V11C11.25 7.55 8.45 4.75 5 4.75H2C1.59 4.75 1.25 4.41 1.25 4C1.25 3.59 1.59 3.25 2 3.25H5C9.27 3.25 12.75 6.73 12.75 11V14C12.75 14.41 12.41 14.75 12 14.75Z"
    fill="#292D32"
  />
  <path
    d="M3.99948 6.75C3.80948 6.75 3.61945 6.68 3.46945 6.53L1.46945 4.53C1.17945 4.24 1.17945 3.76 1.46945 3.47L3.46945 1.47C3.75945 1.18 4.23951 1.18 4.52951 1.47C4.81951 1.76 4.81951 2.24 4.52951 2.53L3.05948 4L4.52951 5.47C4.81951 5.76 4.81951 6.24 4.52951 6.53C4.37951 6.68 4.18948 6.75 3.99948 6.75Z"
    fill="#292D32"
  />
  <path
    d="M19.9995 6.75C19.8095 6.75 19.6195 6.68 19.4695 6.53C19.1795 6.24 19.1795 5.76 19.4695 5.47L20.9395 4L19.4695 2.53C19.1795 2.24 19.1795 1.76 19.4695 1.47C19.7595 1.18 20.2395 1.18 20.5295 1.47L22.5295 3.47C22.8195 3.76 22.8195 4.24 22.5295 4.53L20.5295 6.53C20.3795 6.68 20.1895 6.75 19.9995 6.75Z"
    fill="#292D32"
  />
</svg>
